<svg xmlns="http://www.w3.org/2000/svg" version="1.1" xmlns:xlink="http://www.w3.org/1999/xlink" width="1000" height="1000"><g clip-path="url(#SvgjsClipPath1003)"><rect width="1000" height="1000" fill="#ffffff"></rect><g transform="matrix(3.5,0,0,3.5,150,150)"><svg xmlns="http://www.w3.org/2000/svg" version="1.1" xmlns:xlink="http://www.w3.org/1999/xlink" width="200" height="200"><svg xmlns="http://www.w3.org/2000/svg" version="1.1" xmlns:xlink="http://www.w3.org/1999/xlink" viewBox="0 0 200 200"><rect width="200" height="200" fill="url('#gradient')"></rect><defs><linearGradient id="gradient" gradientTransform="rotate(45 0.5 0.5)"><stop offset="0%" stop-color="#0092ca"></stop><stop offset="100%" stop-color="#ffffff"></stop></linearGradient><clipPath id="SvgjsClipPath1003"><rect width="1000" height="1000" x="0" y="0" rx="350" ry="350"></rect></clipPath></defs><g><g fill="#2c1f37" transform="matrix(4.899521531100478,0,0,4.899521531100478,4.749938583259947,134.8349736067667)" stroke="#15374d" stroke-width="0.2"><path d="M5.75 0L1.07 0L1.07-14.22L5.65-14.22Q7.54-14.22 9.04-13.36Q10.55-12.51 11.39-10.95Q12.24-9.39 12.25-7.46L12.25-7.46L12.25-6.81Q12.25-4.85 11.42-3.31Q10.60-1.76 9.10-0.88Q7.60-0.01 5.75 0L5.75 0ZM5.65-11.57L4.50-11.57L4.50-2.64L5.69-2.64Q7.17-2.64 7.96-3.69Q8.75-4.74 8.75-6.81L8.75-6.81L8.75-7.42Q8.75-9.48 7.96-10.53Q7.17-11.57 5.65-11.57L5.65-11.57ZM21.87 0L18.84-5.29L17.43-3.75L17.43 0L14.00 0L14.00-14.22L17.43-14.22L17.43-7.95L18.62-9.76L21.69-14.22L25.93-14.22L21.12-7.93L25.93 0L21.87 0ZM32.57 0L26.80 0L26.80-14.22L31.90-14.22Q34.65-14.22 36.08-13.21Q37.51-12.21 37.51-10.29L37.51-10.29Q37.51-9.19 37.00-8.41Q36.49-7.63 35.51-7.26L35.51-7.26Q36.62-6.96 37.22-6.16Q37.81-5.36 37.81-4.21L37.81-4.21Q37.81-2.12 36.49-1.07Q35.17-0.02 32.57 0L32.57 0ZM32.63-6.04L30.22-6.04L30.22-2.64L32.47-2.64Q33.40-2.64 33.90-3.06Q34.39-3.49 34.39-4.26L34.39-4.26Q34.39-6.04 32.63-6.04L32.63-6.04ZM30.22-11.57L30.22-8.29L32.01-8.29Q33.13-8.30 33.61-8.70Q34.09-9.10 34.09-9.88L34.09-9.88Q34.09-10.78 33.57-11.18Q33.06-11.57 31.90-11.57L31.90-11.57L30.22-11.57Z"></path></g></g></svg></svg></g></g></svg>